<svg width="146" height="28" viewBox="0 0 146 28" fill="none" xmlns="http://www.w3.org/2000/svg">
<mask id="mask0_237_1712" style="mask-type:luminance" maskUnits="userSpaceOnUse" x="0" y="0" width="146" height="28">
<path d="M145.5 0.602417H0.759766V27.0376H145.5V0.602417Z" fill="white"/>
</mask>
<g mask="url(#mask0_237_1712)">
<path d="M5.22563 18.7878C5.13092 19.1027 5.0291 19.4342 4.9178 19.7823C4.80651 20.1304 4.68812 20.4927 4.56262 20.8715C4.43712 21.2812 4.33293 21.6932 4.25479 22.1028C4.17665 22.5125 4.05826 22.9245 3.89961 23.3341C3.71018 23.9332 3.50417 24.2979 3.28395 24.4234C3.06374 24.5489 2.65173 24.5347 2.05265 24.376C1.48435 24.2174 1.10548 24.0043 0.916052 23.7367C0.726621 23.4691 0.710045 23.0666 0.868694 22.5291C1.37306 20.6347 1.87979 18.757 2.38415 16.8935C2.88852 15.0299 3.40945 13.1522 3.94697 11.2579C4.20033 10.3415 4.4679 9.41804 4.75205 8.48746C5.0362 7.55687 5.35113 6.63339 5.69921 5.71701C6.23672 4.23234 6.89974 2.89211 7.68825 1.69159C8.03633 1.12329 8.36783 0.869925 8.68276 0.933858C8.99769 0.997792 9.3292 1.31272 9.67728 1.88102C10.3095 2.82818 10.7902 3.8298 11.1217 4.88825C11.4532 5.9467 11.7445 7.02646 11.9979 8.13227C12.4714 10.0265 12.9924 11.9209 13.5607 13.8152C14.129 15.7095 14.6807 17.6038 15.2182 19.4981L16.6389 24.7549C16.6697 24.9443 16.71 25.1337 16.7573 25.3232C16.8047 25.5126 16.8284 25.702 16.8284 25.8915C16.8284 26.0809 16.7739 26.2538 16.6626 26.4124C16.5513 26.5711 16.3714 26.6966 16.118 26.7913C15.6444 27.0115 15.1401 27.021 14.6025 26.815C14.065 26.6089 13.7027 26.2703 13.5133 25.7968C13.2931 25.1977 13.0942 24.5891 12.9213 23.9735C12.7485 23.3578 12.5827 22.7493 12.4241 22.1502C12.3294 21.8021 12.2512 21.4469 12.1873 21.0846C12.1234 20.7223 12.0286 20.3672 11.9031 20.0191C11.7776 19.671 11.6024 19.3798 11.3822 19.143C11.162 18.9062 10.8613 18.7878 10.4824 18.7878H5.22563ZM8.73012 8.55849C8.60462 8.52771 8.4294 8.51114 8.20918 8.51114C7.76639 9.36358 7.42067 10.2633 7.16731 11.2105C6.91394 12.1577 6.64637 13.1048 6.36222 14.052C6.29829 14.3361 6.36222 14.58 6.55165 14.786C6.74109 14.992 6.99445 15.1104 7.30938 15.1412C7.8469 15.172 8.37494 15.1815 8.89587 15.1649C9.41681 15.1483 9.99221 15.1412 10.6245 15.1412C10.2764 13.9407 9.95433 12.8041 9.6536 11.7314C9.35288 10.6588 9.04505 9.60037 8.73012 8.55849Z" fill="#1D1D1F"/>
<path d="M17.207 3.96483C17.2709 3.71147 17.3183 3.39654 17.349 3.01767C17.3798 2.63881 17.4438 2.25995 17.5385 1.88108C17.7918 1.09257 18.327 0.66635 19.1487 0.602417C19.5915 0.602417 19.9064 0.737387 20.0958 1.00496C20.2852 1.27253 20.4107 1.58036 20.4747 1.92844C20.6333 2.7501 20.7825 3.58597 20.9246 4.43841C21.0667 5.29086 21.2016 6.12672 21.3271 6.94838C21.5166 8.55856 21.6894 9.9864 21.8481 11.2343C22.0067 12.4822 22.1559 13.704 22.298 14.9045C22.44 16.105 22.5892 17.3269 22.7479 18.5748C22.9065 19.8226 23.0794 21.2505 23.2688 22.8607C23.3327 23.3035 23.3943 23.7297 23.4582 24.1393C23.5222 24.549 23.5837 24.9752 23.6477 25.418C23.7116 25.8608 23.6477 26.1828 23.4582 26.3888C23.2688 26.5948 22.9846 26.744 22.6058 26.8387C21.7226 27.0282 21.0501 26.9737 20.5931 26.673C20.1361 26.3723 19.859 25.7661 19.7643 24.8497C19.5109 22.9246 19.2907 21.1795 19.1013 19.6166C18.9119 18.0538 18.7224 16.5147 18.533 14.9992C18.3436 13.4838 18.147 11.9447 17.941 10.3818C17.735 8.81902 17.5219 7.07388 17.3017 5.14878C17.2709 4.99013 17.2543 4.82438 17.2543 4.65152C17.2543 4.47867 17.2378 4.24898 17.207 3.96483Z" fill="#1D1D1F"/>
<path d="M24.0742 2.68618C24.1382 2.43282 24.1855 2.2055 24.2163 1.99949C24.2471 1.79348 24.2944 1.58037 24.3584 1.36016C24.4223 1.13994 24.5644 0.964721 24.7846 0.839223C24.9432 0.744507 25.1469 0.720828 25.4002 0.768186C25.6536 0.815544 25.9141 0.91026 26.1816 1.05233C26.4492 1.19441 26.7026 1.37673 26.9394 1.59695C27.1762 1.81716 27.3585 2.05395 27.484 2.30732C27.6426 2.59147 27.6663 2.92297 27.555 3.30184C27.4437 3.6807 27.2306 3.99563 26.9157 4.249C26.5676 4.50236 26.1343 4.5876 25.6134 4.50946C25.0924 4.43132 24.7064 4.20164 24.4531 3.82277C24.3276 3.66412 24.2471 3.48416 24.2163 3.27816C24.1855 3.07215 24.1382 2.87561 24.0742 2.68618ZM29.2836 25.7022C29.1249 26.1758 28.8408 26.5073 28.4312 26.6967C28.1162 26.8554 27.7918 26.9501 27.4603 26.9809C27.1288 27.0116 26.8376 26.8388 26.5842 26.4599C26.4255 26.2066 26.2835 25.939 26.158 25.6548C26.0325 25.3707 25.952 25.0865 25.9212 24.8024C25.701 22.3398 25.5021 19.9079 25.3292 17.5093C25.1563 15.1106 24.974 12.6788 24.7846 10.2161C24.7846 10.0575 24.7917 9.90827 24.8083 9.7662C24.8248 9.62413 24.8319 9.47495 24.8319 9.3163C24.8627 8.96822 24.9432 8.66039 25.0687 8.39282C25.1942 8.12525 25.431 7.99027 25.7791 7.99027C26.0325 7.99027 26.3071 8.05421 26.6079 8.17971C26.9086 8.30521 27.1359 8.48043 27.2946 8.70064C27.5148 8.95401 27.69 9.26184 27.8155 9.62412C27.941 9.98641 28.0215 10.3416 28.0523 10.6897C28.2109 12.2052 28.3293 13.7135 28.4075 15.2124C28.4856 16.7113 28.5898 18.2196 28.7153 19.7351C28.7461 20.0832 28.81 20.5094 28.9047 21.0138C28.9994 21.5181 29.0942 22.0485 29.1889 22.6002C29.2836 23.152 29.3546 23.7061 29.402 24.2578C29.4493 24.8095 29.4091 25.2925 29.2836 25.7022Z" fill="#1D1D1F"/>
<path d="M32.7855 19.9245C32.7855 22.451 33.8913 23.8244 36.1006 24.0446C36.6381 24.1086 37.1898 24.1228 37.7581 24.092C38.3264 24.0612 38.8947 24.0446 39.463 24.0446C40.5356 24.0754 41.246 24.5348 41.5941 25.418C41.6888 25.7329 41.6959 26.0029 41.6178 26.2231C41.5396 26.4433 41.3265 26.5854 40.9784 26.6493C39.6216 26.8695 38.2719 26.9737 36.9293 26.9571C35.5867 26.9406 34.2844 26.538 33.0223 25.7495C32.0112 25.1173 31.27 24.3453 30.7965 23.429C30.3229 22.5126 30.008 21.5181 29.8493 20.4454C29.6907 19.6238 29.6764 18.8045 29.8019 17.9828C29.9274 17.1611 30.1169 16.3418 30.3702 15.5202C30.7183 14.5091 31.2298 13.6661 31.9094 12.9865C32.589 12.3069 33.3704 11.715 34.2536 11.2106C35.3263 10.5784 36.3681 10.6731 37.3792 11.4948C37.6326 11.6842 37.8528 11.8902 38.0422 12.1104C38.2317 12.3306 38.4045 12.5674 38.5632 12.8208C39.1007 13.6424 39.5103 14.5091 39.7945 15.4255C40.0786 16.3418 40.2988 17.2724 40.4575 18.2196C40.5522 18.8518 40.5048 19.2544 40.3154 19.4272C40.126 19.6001 39.7163 19.7043 39.0841 19.735H36.5978C35.7619 19.735 34.9332 19.7516 34.1115 19.7824C33.8913 19.7824 33.6782 19.799 33.4722 19.8298C33.2662 19.8605 33.0389 19.8937 32.7855 19.9245ZM36.7636 16.6568C36.7636 16.0885 36.7328 15.6386 36.6688 15.3071C36.6049 14.9756 36.4628 14.7317 36.2426 14.573C36.1171 14.4475 35.9656 14.3433 35.7927 14.2652C35.6199 14.1871 35.4541 14.1634 35.2955 14.1942C34.8527 14.2581 34.4265 14.5801 34.0168 15.165C33.6072 15.7499 33.3846 16.3418 33.3538 16.9409C34.5212 16.8462 35.6578 16.7515 36.7636 16.6568Z" fill="#1D1D1F"/>
<path d="M45.6666 13.5311C46.0762 13.2162 46.4314 12.932 46.7321 12.6787C47.0329 12.4253 47.3407 12.1885 47.6556 11.9683C49.0456 10.9264 50.3858 10.5949 51.681 10.9738C52.9763 11.3526 53.9377 12.3472 54.5699 13.9573C54.6338 14.116 54.6883 14.2888 54.7356 14.4783C54.783 14.6677 54.8375 14.8405 54.9014 14.9992C55.1855 16.0411 55.4531 16.9243 55.7065 17.6512C55.9598 18.3782 56.1872 19.0791 56.3932 19.7587C56.5992 20.4383 56.7649 21.1557 56.8904 21.9135C57.0159 22.6712 57.0799 23.5876 57.0799 24.6602C57.0799 25.2925 56.9686 25.766 56.7484 26.081C56.5281 26.3959 56.1493 26.6327 55.6118 26.7913C54.5391 27.0755 53.8903 26.7274 53.6701 25.7495C53.5754 25.4653 53.5114 25.1646 53.4806 24.8497C53.4499 24.5347 53.4333 24.234 53.4333 23.9499C53.4025 23.1613 53.3078 22.3941 53.1491 21.653C52.9905 20.9118 52.7869 20.1778 52.5335 19.4508C52.3441 18.8186 52.1546 18.1485 51.9652 17.4381C51.7758 16.7278 51.4916 16.105 51.1128 15.5675C50.8594 15.2194 50.5989 15.0229 50.3313 14.9755C50.0638 14.9282 49.7867 14.9684 49.5026 15.0939C49.2184 15.2194 48.9414 15.3946 48.6738 15.6149C48.4062 15.8351 48.16 16.0576 47.9398 16.2779C47.5917 16.6259 47.2602 16.9717 46.9453 17.3197C46.6303 17.6678 46.3462 18.0467 46.0928 18.4563C45.8394 18.866 45.6429 19.2922 45.5008 19.735C45.3588 20.1778 45.3185 20.6656 45.3824 21.2031L45.8087 24.6129C45.9981 25.8134 45.65 26.5545 44.7668 26.8387C43.661 27.1536 42.9198 26.7132 42.541 25.5127C42.2876 24.6602 42.1621 23.8244 42.1621 23.0027V15.4491C42.1621 14.644 42.1787 13.6897 42.2095 12.5839C42.2095 12.0464 42.3042 11.5113 42.4936 10.9738C42.6523 10.4055 42.9435 10.0811 43.3697 10.0029C43.7959 9.92475 44.1819 10.1213 44.53 10.5949C44.6886 10.8483 44.8141 11.1395 44.9089 11.471C45.0036 11.8025 45.1149 12.1269 45.2404 12.4419C45.3043 12.6005 45.3588 12.7568 45.4061 12.9154C45.4535 13.0741 45.5411 13.2777 45.6666 13.5311Z" fill="#1D1D1F"/>
<path d="M78.1547 16.1832C78.2186 17.4453 78.2897 18.6292 78.3678 19.735C78.4459 20.8408 78.5028 21.9443 78.5336 23.0501C78.5975 23.9973 78.4554 24.8805 78.1073 25.7021C77.9487 26.081 77.7214 26.4196 77.4206 26.7203C77.1199 27.0211 76.7032 27.1063 76.1657 26.9808C75.6613 26.8553 75.2351 26.673 74.887 26.4362C74.5389 26.1994 74.3021 25.8134 74.1766 25.2759C74.0819 24.8331 73.9943 24.3761 73.9161 23.9025C73.838 23.429 73.7812 22.972 73.7504 22.5292C73.5302 19.2449 73.4899 15.9867 73.632 12.7497C73.7741 9.51282 74.0038 6.2688 74.3187 3.01767C74.4134 2.1013 74.6028 1.49511 74.887 1.19439C75.1711 0.893668 75.756 0.727916 76.6392 0.697133C78.2494 0.6332 79.8596 0.602417 81.4697 0.602417H86.3003C86.5536 0.602417 86.7975 0.642671 87.0343 0.720812C87.2711 0.798953 87.5008 0.886565 87.721 0.981281C89.1725 1.73901 89.7882 2.63881 89.568 3.68068C89.4093 4.37448 89.0778 4.8007 88.5734 4.95935C88.0691 5.118 87.5316 5.19614 86.9633 5.19614C86.08 5.26007 85.2039 5.28375 84.3349 5.26718C83.4659 5.2506 82.5755 5.2435 81.6592 5.2435C81.2164 5.27428 80.7594 5.28375 80.2858 5.26718C79.8122 5.2506 79.3079 5.2435 78.7703 5.2435C78.7064 6.19066 78.6519 7.09756 78.6046 7.96658C78.5572 8.8356 78.5028 9.75908 78.4388 10.737C79.0711 10.6731 79.6394 10.6257 80.1437 10.5949C80.6481 10.5642 81.1548 10.5168 81.6592 10.4529C82.2275 10.3889 82.7721 10.4055 83.293 10.5002C83.814 10.5949 84.2804 10.8791 84.6901 11.3527C84.9103 11.606 85.1163 11.921 85.3057 12.2998C85.4952 12.6787 85.5425 13.0102 85.4478 13.2944C85.3531 13.6424 85.1471 13.9645 84.8322 14.2652C84.5172 14.5659 84.1857 14.7932 83.8376 14.9519C83.4896 15.1105 83.0965 15.2052 82.6537 15.236C82.2109 15.2668 81.7847 15.3307 81.375 15.4255C80.8707 15.5202 80.3639 15.6315 79.8596 15.757C79.3552 15.8825 78.7869 16.0245 78.1547 16.1832Z" fill="#1D1D1F"/>
<path d="M94.9669 26.223C94.8082 26.538 94.5478 26.7511 94.1855 26.8624C93.8232 26.9737 93.4041 26.95 92.9305 26.7913C92.4877 26.6327 92.1799 26.3817 92.007 26.0336C91.8342 25.6855 91.6992 25.2924 91.6045 24.8497C91.3843 23.8078 91.2256 23.0903 91.1309 22.6949C91.0362 22.2994 90.9651 21.9679 90.9178 21.7003C90.8704 21.4328 90.8065 21.0918 90.7284 20.6822C90.6502 20.2725 90.5318 19.5456 90.3732 18.5037C90.2145 17.5873 90.1293 16.6875 90.1127 15.8043C90.0961 14.9211 90.0724 14.0213 90.0417 13.1049C90.0109 12.1885 90.1766 11.5965 90.5389 11.329C90.9012 11.0614 91.5098 11.0045 92.3622 11.1632C92.6771 11.2271 92.9944 11.2271 93.3094 11.1632C93.6243 11.0993 93.9416 11.0377 94.2565 10.9738C95.5518 10.6257 96.7973 10.531 97.9978 10.6896C99.1983 10.8483 100.318 11.3834 101.36 12.2998C101.644 12.5532 101.874 12.8278 102.047 13.1286C102.22 13.4293 102.182 13.7679 101.928 14.1468C101.675 14.5256 101.377 14.7624 101.029 14.8571C100.68 14.9518 100.302 14.9211 99.8921 14.7624C99.7335 14.6985 99.5914 14.644 99.4659 14.5967C99.3404 14.5493 99.1983 14.4948 99.0397 14.4309C97.6829 13.9573 96.6647 13.9265 95.9851 14.3362C95.3055 14.7458 94.8556 15.6622 94.6354 17.0829C94.446 18.409 94.4767 19.735 94.7301 21.061C94.9835 22.387 95.1563 23.7131 95.251 25.0391C95.251 25.5127 95.1563 25.9081 94.9669 26.223Z" fill="#1D1D1F"/>
<path d="M106.141 19.9245C106.141 22.451 107.247 23.8244 109.456 24.0446C109.993 24.1086 110.545 24.1228 111.114 24.092C111.682 24.0612 112.25 24.0446 112.818 24.0446C113.891 24.0754 114.601 24.5348 114.95 25.418C115.044 25.7329 115.051 26.0029 114.973 26.2231C114.895 26.4433 114.682 26.5854 114.334 26.6493C112.977 26.8695 111.627 26.9737 110.285 26.9571C108.942 26.9406 107.64 26.538 106.378 25.7495C105.367 25.1173 104.625 24.3453 104.152 23.429C103.678 22.5126 103.363 21.5181 103.205 20.4454C103.046 19.6238 103.032 18.8045 103.157 17.9828C103.283 17.1611 103.472 16.3418 103.726 15.5202C104.074 14.5091 104.585 13.6661 105.265 12.9865C105.944 12.3069 106.726 11.715 107.609 11.2106C108.682 10.5784 109.724 10.6731 110.735 11.4948C110.988 11.6842 111.208 11.8902 111.398 12.1104C111.587 12.3306 111.76 12.5674 111.919 12.8208C112.456 13.6424 112.866 14.5091 113.15 15.4255C113.434 16.3418 113.654 17.2724 113.813 18.2196C113.908 18.8518 113.86 19.2544 113.671 19.4272C113.481 19.6001 113.072 19.7043 112.44 19.735H109.953C109.117 19.735 108.289 19.7516 107.467 19.7824C107.247 19.7824 107.034 19.799 106.828 19.8298C106.622 19.8605 106.394 19.8937 106.141 19.9245ZM110.119 16.6568C110.119 16.0885 110.088 15.6386 110.024 15.3071C109.96 14.9756 109.818 14.7317 109.598 14.573C109.473 14.4475 109.321 14.3433 109.148 14.2652C108.975 14.1871 108.81 14.1634 108.651 14.1942C108.208 14.2581 107.782 14.5801 107.372 15.165C106.963 15.7499 106.74 16.3418 106.709 16.9409C107.877 16.8462 109.013 16.7515 110.119 16.6568Z" fill="#1D1D1F"/>
<path d="M119.022 13.5311C119.432 13.2162 119.787 12.932 120.088 12.6787C120.389 12.4253 120.696 12.1885 121.011 11.9683C122.401 10.9264 123.742 10.5949 125.037 10.9738C126.332 11.3526 127.293 12.3472 127.926 13.9573C127.99 14.116 128.044 14.2888 128.091 14.4783C128.139 14.6677 128.193 14.8405 128.257 14.9992C128.541 16.0411 128.809 16.9243 129.062 17.6512C129.316 18.3782 129.543 19.0791 129.749 19.7587C129.955 20.4383 130.121 21.1557 130.246 21.9135C130.372 22.6712 130.436 23.5876 130.436 24.6602C130.436 25.2925 130.324 25.766 130.104 26.081C129.884 26.3959 129.505 26.6327 128.967 26.7913C127.895 27.0755 127.246 26.7274 127.026 25.7495C126.931 25.4653 126.867 25.1646 126.836 24.8497C126.806 24.5347 126.789 24.234 126.789 23.9499C126.758 23.1613 126.664 22.3941 126.505 21.653C126.346 20.9118 126.143 20.1778 125.889 19.4508C125.7 18.8186 125.51 18.1485 125.321 17.4381C125.131 16.7278 124.847 16.105 124.468 15.5675C124.215 15.2194 123.955 15.0229 123.687 14.9755C123.419 14.9282 123.142 14.9684 122.858 15.0939C122.574 15.2194 122.297 15.3946 122.03 15.6149C121.762 15.8351 121.516 16.0576 121.295 16.2779C120.947 16.6259 120.616 16.9717 120.301 17.3197C119.986 17.6678 119.702 18.0467 119.449 18.4563C119.195 18.866 118.999 19.2922 118.857 19.735C118.714 20.1778 118.674 20.6656 118.738 21.2031L119.164 24.6129C119.354 25.8134 119.006 26.5545 118.123 26.8387C117.017 27.1536 116.276 26.7132 115.897 25.5127C115.643 24.6602 115.518 23.8244 115.518 23.0027V15.4491C115.518 14.644 115.534 13.6897 115.565 12.5839C115.565 12.0464 115.66 11.5113 115.849 10.9738C116.008 10.4055 116.299 10.0811 116.725 10.0029C117.152 9.92475 117.538 10.1213 117.886 10.5949C118.044 10.8483 118.17 11.1395 118.265 11.471C118.359 11.8025 118.471 12.1269 118.596 12.4419C118.66 12.6005 118.714 12.7568 118.762 12.9154C118.809 13.0741 118.897 13.2777 119.022 13.5311Z" fill="#1D1D1F"/>
<path d="M137.989 10.3582C138.399 10.2634 138.716 10.2871 138.936 10.4292C139.157 10.5713 139.427 10.737 139.741 10.9265C139.836 10.9904 139.947 11.0851 140.073 11.2106C140.262 11.4308 140.421 11.7008 140.547 12.0157C140.641 12.2691 140.705 12.5058 140.736 12.7261C140.767 12.9463 140.658 13.1523 140.404 13.3417C140.341 13.4056 140.286 13.4435 140.239 13.4601C140.191 13.4767 140.137 13.5004 140.073 13.5311C139.914 13.5004 139.789 13.4672 139.694 13.4364C139.599 13.4056 139.505 13.3583 139.41 13.2944C139.346 13.2304 139.299 13.1925 139.268 13.176C139.237 13.1594 139.204 13.1215 139.173 13.0576C138.984 12.8373 138.73 12.6621 138.415 12.5366C138.101 12.4111 137.8 12.3638 137.516 12.3945C137.231 12.4253 136.978 12.5366 136.758 12.7261C136.538 12.9155 136.426 13.2162 136.426 13.6259C136.457 13.7514 136.521 13.8792 136.616 14.0047C136.869 14.2581 137.168 14.3907 137.516 14.4073C137.864 14.4238 138.209 14.5257 138.558 14.7151C138.621 14.7459 138.669 14.7624 138.7 14.7624C138.73 14.7624 138.764 14.779 138.794 14.8098C138.858 14.8406 138.92 14.8737 138.984 14.9045C139.048 14.9353 139.109 14.9685 139.173 14.9992L139.599 15.1413C140.042 15.3 140.468 15.4657 140.878 15.6386C141.288 15.8114 141.683 16.0103 142.062 16.2305C142.536 16.4839 142.969 16.8154 143.364 17.2251C143.76 17.6347 144.115 18.0609 144.43 18.5037C145.157 19.6095 145.408 20.713 145.188 21.8188C144.967 22.9246 144.352 23.886 143.341 24.7076C142.424 25.4346 141.47 25.8987 140.476 26.1047C139.481 26.3107 138.432 26.3344 137.326 26.1757C136.126 26.0171 135.07 25.624 134.153 24.9918C133.237 24.3595 132.432 23.571 131.738 22.6239C131.39 22.1811 131.248 21.7477 131.312 21.3215C131.376 20.8953 131.596 20.5709 131.975 20.3507C132.607 20.0026 133.111 20.1778 133.49 20.8716C133.933 21.6294 134.461 22.2284 135.077 22.6712C135.692 23.114 136.41 23.4597 137.232 23.7131C138.368 24.0612 139.315 24.1085 140.073 23.8552C140.831 23.6018 141.541 22.972 142.204 21.9609C142.519 21.5181 142.654 21.0682 142.607 20.6112C142.559 20.1542 142.315 19.735 141.873 19.3562C140.577 18.1556 139.048 17.3671 137.279 16.9883C136.68 16.8628 136.173 16.6497 135.763 16.3489C135.354 16.0482 134.958 15.6788 134.579 15.236C134.137 14.6985 133.924 14.0687 133.94 13.3417C133.957 12.6148 134.201 11.9849 134.674 11.4474L134.864 11.258L135.053 11.0685C135.401 10.9099 135.787 10.7299 136.213 10.5239C136.64 10.3179 137.089 10.2469 137.563 10.3108C137.722 10.3108 137.864 10.3274 137.989 10.3582Z" fill="#1D1D1F"/>
<path d="M138.735 26.5143C138.264 26.5143 137.783 26.4788 137.293 26.4101C136.064 26.2491 134.961 25.8371 134.018 25.1859C133.085 24.5419 132.254 23.7273 131.546 22.7636C131.163 22.2758 131.004 21.7785 131.077 21.286C131.151 20.7887 131.414 20.4028 131.856 20.1447C132.219 19.9458 132.552 19.8913 132.858 19.9813C133.187 20.0784 133.469 20.3388 133.699 20.758C134.118 21.4778 134.629 22.0579 135.214 22.4794C135.806 22.9056 136.507 23.2442 137.3 23.4881C138.382 23.8196 139.292 23.867 139.997 23.6326C140.7 23.3982 141.375 22.792 142.005 21.833C142.294 21.4281 142.412 21.0397 142.37 20.6372C142.33 20.2441 142.109 19.8747 141.716 19.5385C140.452 18.3664 138.943 17.5897 137.227 17.2227C136.597 17.0901 136.057 16.8628 135.621 16.5431C135.197 16.2353 134.785 15.8469 134.397 15.3923C133.916 14.8098 133.684 14.1207 133.701 13.3393C133.717 12.5603 133.985 11.8712 134.494 11.2935L134.913 10.8743L134.954 10.8554C135.299 10.6991 135.685 10.5192 136.109 10.3132C136.571 10.0906 137.066 10.0124 137.577 10.0764C137.724 10.0764 137.861 10.0906 137.989 10.1166C138.437 10.0219 138.799 10.0598 139.064 10.2303C139.282 10.3723 139.55 10.5357 139.862 10.7228C139.981 10.8009 140.099 10.9051 140.239 11.0425C140.457 11.2958 140.629 11.5894 140.764 11.9281C140.866 12.2004 140.935 12.4561 140.968 12.6929C140.999 12.906 140.949 13.2209 140.558 13.5217C140.471 13.6069 140.393 13.659 140.312 13.685C140.277 13.6969 140.229 13.7182 140.177 13.7442L140.106 13.7798L140.028 13.7655C139.865 13.7324 139.727 13.6992 139.618 13.6637C139.505 13.6258 139.389 13.569 139.277 13.4932L139.244 13.4648C139.18 13.4009 139.157 13.3867 139.154 13.3867C139.088 13.3559 139.029 13.292 138.977 13.1949C138.816 13.0126 138.595 12.8681 138.328 12.7592C138.051 12.6479 137.786 12.6053 137.542 12.6337C137.302 12.6597 137.096 12.7497 136.912 12.9084C136.751 13.0457 136.668 13.2778 136.663 13.5974C136.687 13.6803 136.732 13.7655 136.796 13.8508C137.004 14.0544 137.243 14.1586 137.527 14.1728C137.911 14.1918 138.295 14.3031 138.671 14.5091C138.704 14.5256 138.718 14.5304 138.721 14.5304C138.759 14.528 138.844 14.5446 138.929 14.6156C138.981 14.6417 139.036 14.6701 139.088 14.6961C139.147 14.7269 139.206 14.7553 139.263 14.7837L139.675 14.9211C140.123 15.0821 140.558 15.2502 140.97 15.4254C141.389 15.603 141.797 15.8067 142.18 16.0316C142.666 16.2897 143.123 16.6402 143.535 17.0664C143.935 17.4831 144.302 17.9236 144.622 18.3711C145.384 19.5337 145.652 20.7082 145.42 21.8709C145.188 23.0264 144.539 24.0446 143.49 24.897C142.547 25.6453 141.55 26.1307 140.523 26.3415C139.947 26.4599 139.348 26.519 138.735 26.519V26.5143ZM132.567 20.4146C132.425 20.4146 132.264 20.462 132.091 20.559C131.781 20.7414 131.601 21.0018 131.548 21.357C131.494 21.7193 131.617 22.0863 131.927 22.4794C132.607 23.4076 133.4 24.1867 134.29 24.8C135.169 25.4061 136.204 25.7921 137.359 25.9436C138.434 26.0976 139.467 26.0739 140.43 25.875C141.385 25.6784 142.315 25.2238 143.196 24.5253C144.155 23.7462 144.75 22.8204 144.958 21.7761C145.164 20.739 144.922 19.6829 144.233 18.6387C143.93 18.2148 143.58 17.7933 143.194 17.3932C142.817 17.0025 142.398 16.6828 141.951 16.4436C141.574 16.2258 141.186 16.0316 140.786 15.8611C140.381 15.6906 139.955 15.5249 139.519 15.3686L139.069 15.2171C139.005 15.1863 138.941 15.1531 138.877 15.12C138.816 15.0892 138.752 15.0584 138.688 15.0253L138.645 14.9992C138.588 14.9898 138.524 14.9684 138.451 14.9306C138.131 14.7577 137.816 14.663 137.506 14.6488C137.099 14.6298 136.744 14.4712 136.45 14.1776L136.429 14.1539C136.315 14.0023 136.237 13.8461 136.199 13.6898L136.192 13.6329C136.192 13.1523 136.332 12.7876 136.606 12.5532C136.862 12.333 137.16 12.2027 137.492 12.1672C137.814 12.1317 138.155 12.1838 138.505 12.3235C138.856 12.4632 139.142 12.6621 139.355 12.9107L139.389 12.9605C139.393 12.9723 139.398 12.9794 139.403 12.9865C139.45 13.0149 139.5 13.0575 139.561 13.1167C139.632 13.1617 139.701 13.1973 139.77 13.2186C139.843 13.2422 139.936 13.2683 140.044 13.2896C140.087 13.2707 140.127 13.2541 140.163 13.2422C140.163 13.2422 140.187 13.2304 140.239 13.1807L140.265 13.1594C140.53 12.9605 140.511 12.8137 140.504 12.7663C140.475 12.5627 140.414 12.3401 140.326 12.1057C140.213 11.8191 140.066 11.5705 139.895 11.3716C139.794 11.2698 139.694 11.1845 139.611 11.1301C139.303 10.9454 139.033 10.7796 138.811 10.6352C138.647 10.5286 138.389 10.5168 138.046 10.5949L137.992 10.6068L137.937 10.5926C137.828 10.5665 137.703 10.5523 137.568 10.5523H137.537C137.106 10.4931 136.708 10.5547 136.322 10.7417C135.91 10.9406 135.534 11.1159 135.197 11.2698L134.849 11.6179C134.421 12.1056 134.198 12.6763 134.184 13.3488C134.17 14.0236 134.359 14.5919 134.769 15.0868C135.131 15.5107 135.515 15.8706 135.91 16.1595C136.291 16.4389 136.77 16.6402 137.336 16.7586C139.138 17.1445 140.722 17.9615 142.041 19.1833C142.521 19.5953 142.796 20.0689 142.85 20.5875C142.903 21.1013 142.753 21.6104 142.405 22.0982C141.721 23.1424 140.963 23.8102 140.156 24.0801C139.353 24.3477 138.349 24.3003 137.17 23.9404C136.327 23.6823 135.579 23.32 134.946 22.8654C134.307 22.406 133.751 21.7761 133.294 20.9924C133.123 20.6822 132.936 20.4975 132.732 20.4383C132.683 20.4241 132.628 20.417 132.571 20.417L132.567 20.4146ZM139.374 12.9628L139.384 12.9676C139.384 12.9676 139.377 12.9628 139.374 12.9628Z" fill="#1D1D1F"/>
</g>
</svg>
