<svg width="153" height="30" viewBox="0 0 153 30" fill="none" xmlns="http://www.w3.org/2000/svg">
<path d="M14.3393 29.8991C14.6259 29.8991 14.7488 29.7356 14.8307 29.4903L17.4512 21.5197L20.0717 29.4903C20.1536 29.7356 20.2764 29.8991 20.563 29.8991H33.9521C34.2797 29.8991 34.4434 29.6947 34.3206 29.3677L24.3709 0.346325C24.33 0.182825 24.1662 0.101074 24.0024 0.101074H10.9818C10.7771 0.101074 10.6543 0.182825 10.5724 0.346325L0.540783 29.3677C0.417948 29.6947 0.581729 29.8991 0.909291 29.8991H14.3393ZM65.4369 29.8991C65.6411 29.8991 65.8045 29.7356 65.8045 29.5312V17.3913C65.8045 17.1869 65.6411 17.0234 65.4369 17.0234H58.616C58.5751 17.0234 58.4526 17.0234 58.4118 16.9417C58.3709 16.8599 58.4118 16.7782 58.4526 16.6964L65.7228 0.877703C65.9678 0.346325 65.6819 0.101074 65.3552 0.101074H36.8463C36.6421 0.101074 36.4787 0.30545 36.4787 0.509826V12.6498C36.4787 12.8541 36.6421 13.0176 36.8463 13.0176H43.7489C43.7897 13.0176 43.9123 13.0176 43.9531 13.0994C43.9939 13.1811 43.9531 13.2629 43.9123 13.3446L36.5604 29.1633C36.3153 29.6538 36.6013 29.8991 36.928 29.8991H65.4369ZM83.4228 29.8991C91.7398 29.8991 98.6228 23.3182 98.6228 15.1023V0.509826C98.6228 0.264575 98.4589 0.101074 98.2131 0.101074H84.8567C84.6519 0.101074 84.488 0.264575 84.488 0.509826V14.857C84.488 15.4701 83.9964 15.9198 83.4228 15.9198C82.8492 15.9198 82.3575 15.4701 82.3575 14.857V0.509826C82.3575 0.264575 82.1937 0.101074 81.9888 0.101074H68.6325C68.3867 0.101074 68.2228 0.264575 68.2228 0.509826V15.1023C68.2228 23.3182 75.1058 29.8991 83.4228 29.8991ZM115.66 29.8991C115.905 29.8991 116.068 29.7356 116.068 29.4903V19.7212H117.211L121.292 29.4903C121.414 29.7356 121.496 29.8991 121.823 29.8991H135.658C135.944 29.8991 136.026 29.7765 135.862 29.4086L129.822 15.0614L135.862 0.591577C136.026 0.2237 135.944 0.101074 135.658 0.101074H121.863C121.537 0.101074 121.455 0.264575 121.333 0.509826L117.129 10.5651H116.068V0.509826C116.068 0.30545 115.905 0.101074 115.66 0.101074H102.191C101.946 0.101074 101.783 0.2237 101.783 0.509826V29.4903C101.783 29.7356 101.946 29.8991 102.191 29.8991H115.66ZM152.092 29.8991C152.296 29.8991 152.5 29.7356 152.5 29.4903V0.509601C152.5 0.305222 152.296 0.101074 152.092 0.101074H138.611C138.407 0.101074 138.203 0.305222 138.203 0.509601V29.4903C138.203 29.7356 138.407 29.8991 138.611 29.8991H152.092Z" fill="#1D1D1F"/>
</svg>
