<svg width="96" height="25" viewBox="0 0 96 25" fill="none" xmlns="http://www.w3.org/2000/svg">
<g clip-path="url(#clip0_433_369)">
<path d="M32.7551 5.65991C34.0979 5.65991 35.1369 5.96714 35.9032 6.61957C36.6316 7.23401 36.9975 8.05907 36.9975 9.11534C36.9975 9.88515 36.8042 10.5376 36.421 11.0726C36.0379 11.5732 35.5167 11.9564 34.8262 12.2049C35.7272 12.3775 36.421 12.7434 36.8802 13.2992C37.3428 13.8549 37.5706 14.604 37.5706 15.5257C37.5706 16.9065 37.0908 17.9075 36.1484 18.56C35.3406 19.0985 34.2083 19.3677 32.7516 19.3677H26.4932V5.65991H32.7516H32.7551ZM28.5885 11.4765H32.1959C33.1555 11.4765 33.8459 11.3039 34.2705 10.976C34.6916 10.6307 34.9056 10.0923 34.9056 9.36388C34.9056 8.67349 34.6951 8.17296 34.2705 7.86575C33.8494 7.53779 33.1555 7.3859 32.2338 7.3859H28.585V11.4765H28.5885ZM28.5885 17.6383H32.4651C33.3488 17.6383 34.0392 17.4864 34.5398 17.2171C35.1542 16.8513 35.4821 16.2748 35.4821 15.4912C35.4821 14.7076 35.2336 14.0897 34.7537 13.7238C34.2739 13.3579 33.5249 13.1852 32.5272 13.1852H28.592V17.6383H28.5885Z" fill="#18181D"/>
<path d="M41.8238 9.4433V19.3712H39.7871V9.4433H41.8238ZM41.8238 7.69657H39.7871V5.65991H41.8238V7.69657Z" fill="#18181D"/>
<path d="M81.4492 19.3678V9.43994H83.4823V11.6008C83.8513 10.4859 84.9667 9.43994 86.7785 9.43994H87.4589V11.4697H86.4545C84.5762 11.4697 83.4857 12.2119 83.4857 13.3268V19.3644H81.452L81.4492 19.3678Z" fill="#18181D"/>
<path d="M78.2966 10.2684C77.6065 9.53997 76.5292 9.17407 75.0726 9.17407C73.8435 9.17407 72.846 9.38466 72.1142 9.84718C71.268 10.3477 70.7332 11.1521 70.5195 12.2291L72.5352 12.4017C72.649 11.8459 72.939 11.442 73.3981 11.1727C73.781 10.9415 74.2992 10.8276 74.9346 10.8276C76.4321 10.8276 77.1813 11.518 77.1813 12.9022V13.0334H74.0918C72.6664 13.0334 71.5447 13.5236 70.7574 14.5211C70.3121 15.0838 70.1221 15.6879 70.1221 16.3231C70.1221 18.0077 71.5857 19.3712 73.3912 19.3712C73.5709 19.3712 74.0814 19.3505 74.3644 19.3125C74.4788 19.2987 74.5753 19.278 74.6647 19.2539C75.0996 19.1744 75.5144 19.0605 75.8765 18.888C76.3843 18.6325 76.8053 18.2769 77.1611 17.8592V19.3712H79.1977V13.0368C79.1977 11.8286 78.8904 10.9069 78.2932 10.2718L78.2966 10.2684ZM77.1646 15.2668C77.1161 15.9537 76.8088 16.8202 76.2428 17.2965C75.6282 17.8143 74.8999 17.8144 74.0335 17.8144C73.5154 17.8144 73.0909 17.6797 72.787 17.4312C72.4624 17.1827 72.307 16.8754 72.307 16.4888C72.307 15.3393 73.1221 14.7041 74.748 14.5902H77.1646V15.2668Z" fill="#18181D"/>
<path d="M65.4035 5.65991L60.1772 17.1343L54.9509 5.65991H52.6035V19.3677H54.6368V9.4433L59.1588 19.3677H61.1955L65.728 9.41909V19.3677H67.7646V5.65991H65.4035Z" fill="#18181D"/>
<path d="M93.0714 17.6383V11.473H95.3285V9.44323H93.0714V6.67822H91.0411V9.44323H89.2051V11.473H91.0411V17.224C91.0411 18.5392 91.7833 19.3712 93.1852 19.3712H95.332V17.6417H93.0749L93.0714 17.6383Z" fill="#18181D"/>
<path d="M47.9815 17.6383V11.473H50.2391V9.44323H47.9815V6.67822H45.9517V9.44323H44.1152V11.473H45.9517V17.224C45.9517 18.5392 46.6939 19.3712 48.0954 19.3712H50.2425V17.6417H47.9849L47.9815 17.6383Z" fill="#18181D"/>
<path d="M13.6343 17.7454H6.25391V18.3909H13.6343V17.7454Z" fill="#18181D"/>
<path d="M8.09699 21.76H2.56348V22.4055H8.09699V21.76Z" fill="#18181D"/>
<path d="M4.40397 17.7522H0.720703V18.3977H4.40397V17.7522Z" fill="#18181D"/>
<path d="M13.6346 15.8848H8.09766V16.5303H13.6346V15.8848Z" fill="#18181D"/>
<path d="M6.2472 15.8848H2.56738V16.5303H6.2472V15.8848Z" fill="#18181D"/>
<path d="M13.6344 7.5481H4.40723V8.19367H13.6344V7.5481Z" fill="#18181D"/>
<path d="M6.25065 5.40454H2.56738V6.05007H6.25065V5.40454Z" fill="#18181D"/>
<path d="M18.5289 11.6009C18.5289 11.6009 18.5358 11.5905 18.5393 11.5836C19.5196 9.87141 19.7751 7.87962 19.2573 5.97412C18.7395 4.06862 17.5105 2.48071 15.7984 1.50035C14.6799 0.861732 13.4131 0.523438 12.1324 0.523438H4.41029V1.44512H12.1289H12.1565C13.2405 1.44857 14.3348 1.72473 15.3427 2.30121C17.9559 3.79937 19.1261 6.84402 18.3632 9.62288C18.5772 8.7219 18.5634 7.77259 18.3149 6.85437C17.9179 5.39764 16.9789 4.18254 15.6707 3.43346C14.818 2.94328 13.848 2.68783 12.8711 2.68438H6.25365V3.60606H12.878C13.672 3.60606 14.4728 3.80973 15.2115 4.23087C17.1792 5.35966 18.0249 7.6863 17.3587 9.76098C17.7695 8.18336 17.1032 6.4643 15.6223 5.61511C15.0631 5.29408 14.4314 5.12838 13.7928 5.12493H8.09352V6.04661H13.7928C14.2588 6.04661 14.7317 6.16743 15.1632 6.41252C16.4922 7.17196 16.9548 8.86341 16.2023 10.1924C15.398 9.89215 14.5281 9.72644 13.6236 9.72644H6.25365V10.6481H13.6375C16.7891 10.655 19.4092 12.9161 19.9753 15.9055C19.4126 13.4442 17.2068 11.6043 14.5798 11.6043H4.40684V12.526H14.5936C16.9099 12.5329 18.8224 14.2451 19.1434 16.4716C18.8292 14.756 17.3207 13.4477 15.5153 13.4477H4.41029V14.3693H15.5153C17.0445 14.3693 18.2838 15.6086 18.2838 17.1379C18.2838 18.6671 17.0445 19.9063 15.5187 19.9063H2.56348V20.828H15.5153C17.3207 20.828 18.8292 19.5232 19.1434 17.8041C18.8189 20.034 16.8996 21.7497 14.5798 21.7497H9.94381V22.6714H14.5798C17.1067 22.6714 19.24 20.9695 19.9028 18.6498C19.2124 21.4735 16.6682 23.5654 13.6375 23.5724H4.42065V24.494H13.6236C17.697 24.494 21.0143 21.1801 21.0143 17.1033C21.0143 14.9113 20.0547 12.9402 18.5323 11.5836L18.5289 11.6009Z" fill="#18181D"/>
</g>
<defs>
<clipPath id="clip0_433_369">
<rect width="94.6821" height="24" fill="white" transform="translate(0.65918 0.5)"/>
</clipPath>
</defs>
</svg>
