<svg width="347" height="172" viewBox="0 0 347 172" fill="none" xmlns="http://www.w3.org/2000/svg">
<path d="M167.583 32.3464C170.764 33.9782 174.423 34.4202 177.901 33.5927C181.379 32.7653 184.448 30.7228 186.553 27.8334C188.658 24.944 189.662 21.3976 189.384 17.8334C189.106 14.2691 187.564 10.9214 185.036 8.39342C182.508 5.86546 179.161 4.32352 175.596 4.04546C172.032 3.7674 168.486 4.77151 165.596 6.87684C162.707 8.98218 160.664 12.0503 159.837 15.5283C159.01 19.0063 159.452 22.6655 161.083 25.8464L157.75 35.6798L167.583 32.3464Z" stroke="white" stroke-width="4" stroke-linecap="round" stroke-linejoin="round"/>
<path d="M13.9563 99V65.4766H2.14375V59.543H32.7688V65.4766H20.9836V99H13.9563ZM41.6859 99.5742C32.9906 99.5742 27.7406 93.8047 27.7406 84.5898V84.5625C27.7406 75.4297 33.0727 69.4141 41.3578 69.4141C49.643 69.4141 54.7836 75.2383 54.7836 83.9883V86.1758H34.4945C34.6039 91.2617 37.393 94.2695 41.8227 94.2695C45.2133 94.2695 47.4281 92.4648 48.0844 90.5234L48.1391 90.332H54.5102L54.4281 90.6328C53.5258 95.0898 49.2602 99.5742 41.6859 99.5742ZM41.4398 74.7461C37.8305 74.7461 35.1234 77.1797 34.5766 81.6367H48.1664C47.6742 77.043 45.0492 74.7461 41.4398 74.7461ZM55.3883 99L64.7672 84.5352L55.4977 70.0156H63.1539L68.9781 80.1875H69.1422L74.9117 70.0156H82.3492L73.025 84.3438L82.2672 99H74.8297L68.8141 88.6094H68.65L62.6617 99H55.3883ZM95.3953 99.5742C89.325 99.5742 86.4539 97.1133 86.4539 91.1523V75.2656H82.3523V70.0156H86.4539V62.6602H93.3719V70.0156H98.7586V75.2656H93.3719V90.5781C93.3719 93.4219 94.6297 94.3242 97.118 94.3242C97.7742 94.3242 98.2938 94.2422 98.7586 94.2148V99.3281C97.9656 99.4375 96.7625 99.5742 95.3953 99.5742ZM123.019 99.5742C116.948 99.5742 114.077 97.1133 114.077 91.1523V75.2656H109.976V70.0156H114.077V62.6602H120.995V70.0156H126.382V75.2656H120.995V90.5781C120.995 93.4219 122.253 94.3242 124.741 94.3242C125.398 94.3242 125.917 94.2422 126.382 94.2148V99.3281C125.589 99.4375 124.386 99.5742 123.019 99.5742ZM142.135 99.5742C133.604 99.5742 128.108 93.8867 128.108 84.5078V84.4531C128.108 75.1562 133.686 69.4141 142.108 69.4141C150.557 69.4141 156.163 75.1016 156.163 84.4531V84.5078C156.163 93.9141 150.639 99.5742 142.135 99.5742ZM142.163 94.0781C146.455 94.0781 149.217 90.5781 149.217 84.5078V84.4531C149.217 78.4102 146.428 74.9375 142.108 74.9375C137.87 74.9375 135.053 78.4375 135.053 84.4531V84.5078C135.053 90.6055 137.815 94.0781 142.163 94.0781ZM182.419 109.145C174.735 109.145 169.895 105.645 169.075 101.105L169.02 100.859H175.72L175.802 101.078C176.54 102.746 178.864 104.004 182.419 104.004C186.848 104.004 189.282 101.652 189.282 97.9609V93.7773H189.145C187.532 96.8672 184.251 98.8359 180.095 98.8359C172.821 98.8359 168.145 93.2578 168.145 84.2344V84.207C168.145 75.0469 172.876 69.4141 180.204 69.4141C184.305 69.4141 187.477 71.6016 189.118 74.9375H189.282V70.0156H196.091V98.1797C196.091 104.742 190.813 109.145 182.419 109.145ZM182.227 93.5859C186.466 93.5859 189.309 90.0039 189.309 84.3711V84.3438C189.309 78.7383 186.438 75.1562 182.227 75.1562C177.852 75.1562 175.091 78.6836 175.091 84.3164V84.3438C175.091 90.0586 177.852 93.5859 182.227 93.5859ZM209.027 99.4922C203.23 99.4922 199.32 95.9102 199.32 90.7422V90.6875C199.32 85.5469 203.312 82.457 210.34 82.0195L217.914 81.5547V79.5586C217.914 76.6328 216 74.8555 212.555 74.8555C209.328 74.8555 207.359 76.3594 206.922 78.4922L206.867 78.7383H200.551L200.578 78.4102C200.988 73.2695 205.445 69.4141 212.801 69.4141C220.047 69.4141 224.723 73.2422 224.723 79.0664V99H217.914V94.543H217.75C216.082 97.5781 212.855 99.4922 209.027 99.4922ZM206.102 90.4688C206.102 92.8477 208.07 94.2969 211.051 94.2969C214.961 94.2969 217.914 91.6992 217.914 88.2539V86.0664L211.297 86.4766C207.934 86.6953 206.102 88.1445 206.102 90.4414V90.4688ZM229.019 99V70.0156H235.827V74.6641H235.964C237.195 71.4922 240.175 69.4141 244.003 69.4141C248.05 69.4141 250.976 71.5469 252.042 75.2656H252.206C253.601 71.6562 257.046 69.4141 261.23 69.4141C266.945 69.4141 270.691 73.2969 270.691 79.0938V99H263.882V80.7891C263.882 77.207 262.023 75.1562 258.687 75.1562C255.405 75.1562 253.163 77.5898 253.163 81.0898V99H246.546V80.4336C246.546 77.1797 244.577 75.1562 241.405 75.1562C238.124 75.1562 235.827 77.7266 235.827 81.2539V99H229.019ZM278.569 65.8594C276.436 65.8594 274.768 64.1641 274.768 62.1406C274.768 60.0625 276.436 58.3945 278.569 58.3945C280.702 58.3945 282.342 60.0625 282.342 62.1406C282.342 64.1641 280.702 65.8594 278.569 65.8594ZM275.151 99V70.0156H281.959V99H275.151ZM286.556 99V70.0156H293.365V74.5547H293.502C295.005 71.4375 297.959 69.4141 302.361 69.4141C308.732 69.4141 312.369 73.5156 312.369 80.2422V99H305.56V81.6094C305.56 77.4805 303.646 75.1562 299.763 75.1562C295.853 75.1562 293.365 78 293.365 82.1836V99H286.556ZM329.708 109.145C322.024 109.145 317.184 105.645 316.364 101.105L316.309 100.859H323.009L323.091 101.078C323.829 102.746 326.153 104.004 329.708 104.004C334.138 104.004 336.571 101.652 336.571 97.9609V93.7773H336.434C334.821 96.8672 331.54 98.8359 327.384 98.8359C320.11 98.8359 315.434 93.2578 315.434 84.2344V84.207C315.434 75.0469 320.165 69.4141 327.493 69.4141C331.595 69.4141 334.766 71.6016 336.407 74.9375H336.571V70.0156H343.38V98.1797C343.38 104.742 338.102 109.145 329.708 109.145ZM329.516 93.5859C333.755 93.5859 336.598 90.0039 336.598 84.3711V84.3438C336.598 78.7383 333.727 75.1562 329.516 75.1562C325.141 75.1562 322.38 78.6836 322.38 84.3164V84.3438C322.38 90.0586 325.141 93.5859 329.516 93.5859Z" fill="white"/>
<path d="M104.42 161.574C95.807 161.574 90.4203 155.777 90.4203 146.48V146.453C90.4203 137.211 95.8891 131.414 104.338 131.414C111.967 131.414 116.725 136.254 117.135 142.051L117.162 142.27H110.737L110.682 142.023C110.108 139.207 108.03 136.938 104.42 136.938C100.127 136.938 97.3656 140.574 97.3656 146.508V146.535C97.3656 152.578 100.155 156.078 104.448 156.078C107.893 156.078 110.08 154.027 110.709 150.992L110.764 150.746H117.19L117.162 150.938C116.643 156.98 111.748 161.574 104.42 161.574ZM120.064 161V132.016H126.873V137.02H127.009C127.912 133.52 130.318 131.414 133.654 131.414C134.502 131.414 135.295 131.551 135.814 131.688V137.84C135.24 137.621 134.201 137.457 133.052 137.457C129.197 137.457 126.873 139.891 126.873 144.184V161H120.064ZM149.762 161.574C141.067 161.574 135.817 155.805 135.817 146.59V146.562C135.817 137.43 141.149 131.414 149.434 131.414C157.72 131.414 162.86 137.238 162.86 145.988V148.176H142.571C142.68 153.262 145.47 156.27 149.899 156.27C153.29 156.27 155.505 154.465 156.161 152.523L156.216 152.332H162.587L162.505 152.633C161.602 157.09 157.337 161.574 149.762 161.574ZM149.516 136.746C145.907 136.746 143.2 139.18 142.653 143.637H156.243C155.751 139.043 153.126 136.746 149.516 136.746ZM174.621 161.492C168.824 161.492 164.914 157.91 164.914 152.742V152.688C164.914 147.547 168.906 144.457 175.934 144.02L183.508 143.555V141.559C183.508 138.633 181.594 136.855 178.148 136.855C174.922 136.855 172.953 138.359 172.516 140.492L172.461 140.738H166.145L166.172 140.41C166.582 135.27 171.039 131.414 178.395 131.414C185.641 131.414 190.316 135.242 190.316 141.066V161H183.508V156.543H183.344C181.676 159.578 178.449 161.492 174.621 161.492ZM171.695 152.469C171.695 154.848 173.664 156.297 176.645 156.297C180.555 156.297 183.508 153.699 183.508 150.254V148.066L176.891 148.477C173.527 148.695 171.695 150.145 171.695 152.441V152.469ZM205.386 161.574C199.316 161.574 196.445 159.113 196.445 153.152V137.266H192.343V132.016H196.445V124.66H203.362V132.016H208.749V137.266H203.362V152.578C203.362 155.422 204.62 156.324 207.109 156.324C207.765 156.324 208.284 156.242 208.749 156.215V161.328C207.956 161.438 206.753 161.574 205.386 161.574ZM224.502 161.574C215.971 161.574 210.475 155.887 210.475 146.508V146.453C210.475 137.156 216.053 131.414 224.475 131.414C232.924 131.414 238.53 137.102 238.53 146.453V146.508C238.53 155.914 233.006 161.574 224.502 161.574ZM224.53 156.078C228.823 156.078 231.584 152.578 231.584 146.508V146.453C231.584 140.41 228.795 136.938 224.475 136.938C220.237 136.938 217.42 140.438 217.42 146.453V146.508C217.42 152.605 220.182 156.078 224.53 156.078ZM241.705 161V132.016H248.513V137.02H248.65C249.552 133.52 251.959 131.414 255.295 131.414C256.142 131.414 256.935 131.551 257.455 131.688V137.84C256.88 137.621 255.841 137.457 254.693 137.457C250.837 137.457 248.513 139.891 248.513 144.184V161H241.705Z" fill="url(#paint0_linear_187_310)"/>
<defs>
<linearGradient id="paint0_linear_187_310" x1="-61.0763" y1="79.5821" x2="329.629" y2="225.726" gradientUnits="userSpaceOnUse">
<stop offset="0.488777" stop-color="#E2E2E2"/>
<stop offset="1" stop-color="#666666"/>
</linearGradient>
</defs>
</svg>
