<svg width="40" height="40" viewBox="0 0 40 40" fill="none" xmlns="http://www.w3.org/2000/svg">
<path d="M34.75 12.9966C34.7494 12.412 34.5951 11.8379 34.3026 11.3319C34.01 10.8258 33.5896 10.4055 33.0833 10.1132L21.4167 3.44658C20.9099 3.15402 20.3351 3 19.75 3C19.1649 3 18.5901 3.15402 18.0833 3.44658L6.41667 10.1132C5.91044 10.4055 5.48997 10.8258 5.19744 11.3319C4.9049 11.8379 4.7506 12.412 4.75 12.9966V26.3299C4.7506 26.9145 4.9049 27.4886 5.19744 27.9946C5.48997 28.5007 5.91044 28.921 6.41667 29.2132L18.0833 35.8799C18.5901 36.1725 19.1649 36.3265 19.75 36.3265C20.3351 36.3265 20.9099 36.1725 21.4167 35.8799L33.0833 29.2132C33.5896 28.921 34.01 28.5007 34.3026 27.9946C34.5951 27.4886 34.7494 26.9145 34.75 26.3299V12.9966Z" stroke="#1D1D1F" stroke-width="4" stroke-linecap="round" stroke-linejoin="round"/>
<path d="M5.25 11.3299L19.75 19.6632L34.25 11.3299" stroke="#1D1D1F" stroke-width="4" stroke-linecap="round" stroke-linejoin="round"/>
<path d="M19.75 36.3299V19.6632" stroke="#1D1D1F" stroke-width="4" stroke-linecap="round" stroke-linejoin="round"/>
</svg>
