<svg width="431" height="172" viewBox="0 0 431 172" fill="none" xmlns="http://www.w3.org/2000/svg">
<path d="M230.25 12.9966C230.249 12.412 230.095 11.8379 229.803 11.3319C229.51 10.8258 229.09 10.4055 228.583 10.1132L216.917 3.44658C216.41 3.15402 215.835 3 215.25 3C214.665 3 214.09 3.15402 213.583 3.44658L201.917 10.1132C201.41 10.4055 200.99 10.8258 200.697 11.3319C200.405 11.8379 200.251 12.412 200.25 12.9966V26.3299C200.251 26.9145 200.405 27.4886 200.697 27.9946C200.99 28.5007 201.41 28.921 201.917 29.2132L213.583 35.8799C214.09 36.1725 214.665 36.3265 215.25 36.3265C215.835 36.3265 216.41 36.1725 216.917 35.8799L228.583 29.2132C229.09 28.921 229.51 28.5007 229.803 27.9946C230.095 27.4886 230.249 26.9145 230.25 26.3299V12.9966Z" stroke="white" stroke-width="4" stroke-linecap="round" stroke-linejoin="round"/>
<path d="M200.75 11.3298L215.25 19.6632L229.75 11.3298" stroke="white" stroke-width="4" stroke-linecap="round" stroke-linejoin="round"/>
<path d="M215.25 36.33V19.6633" stroke="white" stroke-width="4" stroke-linecap="round" stroke-linejoin="round"/>
<path d="M3.91797 99V59.543H10.2617L29.4844 87.1875H29.6484V59.543H36.6484V99H30.3594L11.082 71.2461H10.9453V99H3.91797ZM42.4211 99V59.543H67.5773V65.4766H49.4758V77.1523H66.0187V82.8945H49.4758V99H42.4211ZM81.1703 99V65.4766H69.3578V59.543H99.9828V65.4766H88.1977V99H81.1703ZM115.627 59.543L105.263 108.57H99.1109L109.447 59.543H115.627ZM117.352 99V94.1875L131.298 80.5977C136.466 75.5391 137.587 73.543 137.587 70.6172V70.5625C137.559 67.0352 134.907 64.5195 131.106 64.5195C126.731 64.5195 123.669 67.4453 123.587 71.2461V71.4375H116.97V71.2461C116.97 64.0273 123.04 58.8594 131.052 58.8594C138.954 58.8594 144.477 63.6445 144.477 70.1523V70.207C144.477 74.8555 142.317 78 135.372 84.6719L126.677 92.9297V93.2305H145.079V99H117.352ZM149.73 99V59.543H164.141C175.898 59.543 182.898 66.6523 182.898 79.1211V79.1758C182.898 91.6719 175.953 99 164.141 99H149.73ZM156.785 93.0391H163.402C171.332 93.0391 175.707 88.1992 175.707 79.2031V79.1484C175.707 70.3438 171.25 65.5039 163.402 65.5039H156.785V93.0391ZM207.405 99.5742C201.334 99.5742 198.463 97.1133 198.463 91.1523V75.2656H194.362V70.0156H198.463V62.6602H205.381V70.0156H210.768V75.2656H205.381V90.5781C205.381 93.4219 206.639 94.3242 209.127 94.3242C209.784 94.3242 210.303 94.2422 210.768 94.2148V99.3281C209.975 99.4375 208.772 99.5742 207.405 99.5742ZM226.521 99.5742C217.99 99.5742 212.494 93.8867 212.494 84.5078V84.4531C212.494 75.1562 218.072 69.4141 226.494 69.4141C234.943 69.4141 240.548 75.1016 240.548 84.4531V84.5078C240.548 93.9141 235.025 99.5742 226.521 99.5742ZM226.548 94.0781C230.841 94.0781 233.603 90.5781 233.603 84.5078V84.4531C233.603 78.4102 230.814 74.9375 226.494 74.9375C222.255 74.9375 219.439 78.4375 219.439 84.4531V84.5078C219.439 90.6055 222.201 94.0781 226.548 94.0781ZM266.805 109.145C259.121 109.145 254.281 105.645 253.461 101.105L253.406 100.859H260.105L260.188 101.078C260.926 102.746 263.25 104.004 266.805 104.004C271.234 104.004 273.668 101.652 273.668 97.9609V93.7773H273.531C271.918 96.8672 268.637 98.8359 264.48 98.8359C257.207 98.8359 252.531 93.2578 252.531 84.2344V84.207C252.531 75.0469 257.262 69.4141 264.59 69.4141C268.691 69.4141 271.863 71.6016 273.504 74.9375H273.668V70.0156H280.477V98.1797C280.477 104.742 275.199 109.145 266.805 109.145ZM266.613 93.5859C270.852 93.5859 273.695 90.0039 273.695 84.3711V84.3438C273.695 78.7383 270.824 75.1562 266.613 75.1562C262.238 75.1562 259.477 78.6836 259.477 84.3164V84.3438C259.477 90.0586 262.238 93.5859 266.613 93.5859ZM293.413 99.4922C287.616 99.4922 283.706 95.9102 283.706 90.7422V90.6875C283.706 85.5469 287.698 82.457 294.726 82.0195L302.3 81.5547V79.5586C302.3 76.6328 300.386 74.8555 296.941 74.8555C293.714 74.8555 291.745 76.3594 291.308 78.4922L291.253 78.7383H284.937L284.964 78.4102C285.374 73.2695 289.831 69.4141 297.187 69.4141C304.433 69.4141 309.109 73.2422 309.109 79.0664V99H302.3V94.543H302.136C300.468 97.5781 297.241 99.4922 293.413 99.4922ZM290.487 90.4688C290.487 92.8477 292.456 94.2969 295.437 94.2969C299.347 94.2969 302.3 91.6992 302.3 88.2539V86.0664L295.683 86.4766C292.32 86.6953 290.487 88.1445 290.487 90.4414V90.4688ZM313.405 99V70.0156H320.213V74.6641H320.35C321.58 71.4922 324.561 69.4141 328.389 69.4141C332.436 69.4141 335.362 71.5469 336.428 75.2656H336.592C337.987 71.6562 341.432 69.4141 345.616 69.4141C351.33 69.4141 355.077 73.2969 355.077 79.0938V99H348.268V80.7891C348.268 77.207 346.409 75.1562 343.073 75.1562C339.791 75.1562 337.549 77.5898 337.549 81.0898V99H330.932V80.4336C330.932 77.1797 328.963 75.1562 325.791 75.1562C322.51 75.1562 320.213 77.7266 320.213 81.2539V99H313.405ZM362.955 65.8594C360.822 65.8594 359.154 64.1641 359.154 62.1406C359.154 60.0625 360.822 58.3945 362.955 58.3945C365.087 58.3945 366.728 60.0625 366.728 62.1406C366.728 64.1641 365.087 65.8594 362.955 65.8594ZM359.537 99V70.0156H366.345V99H359.537ZM370.942 99V70.0156H377.751V74.5547H377.888C379.391 71.4375 382.345 69.4141 386.747 69.4141C393.118 69.4141 396.755 73.5156 396.755 80.2422V99H389.946V81.6094C389.946 77.4805 388.032 75.1562 384.149 75.1562C380.239 75.1562 377.751 78 377.751 82.1836V99H370.942ZM414.094 109.145C406.41 109.145 401.57 105.645 400.75 101.105L400.695 100.859H407.395L407.477 101.078C408.215 102.746 410.539 104.004 414.094 104.004C418.523 104.004 420.957 101.652 420.957 97.9609V93.7773H420.82C419.207 96.8672 415.926 98.8359 411.77 98.8359C404.496 98.8359 399.82 93.2578 399.82 84.2344V84.207C399.82 75.0469 404.551 69.4141 411.879 69.4141C415.98 69.4141 419.152 71.6016 420.793 74.9375H420.957V70.0156H427.766V98.1797C427.766 104.742 422.488 109.145 414.094 109.145ZM413.902 93.5859C418.141 93.5859 420.984 90.0039 420.984 84.3711V84.3438C420.984 78.7383 418.113 75.1562 413.902 75.1562C409.527 75.1562 406.766 78.6836 406.766 84.3164V84.3438C406.766 90.0586 409.527 93.5859 413.902 93.5859Z" fill="white"/>
<path d="M162.009 161.492C156.212 161.492 152.302 157.91 152.302 152.742V152.688C152.302 147.547 156.295 144.457 163.322 144.02L170.896 143.555V141.559C170.896 138.633 168.982 136.855 165.537 136.855C162.31 136.855 160.341 138.359 159.904 140.492L159.849 140.738H153.533L153.56 140.41C153.97 135.27 158.427 131.414 165.783 131.414C173.029 131.414 177.705 135.242 177.705 141.066V161H170.896V156.543H170.732C169.064 159.578 165.837 161.492 162.009 161.492ZM159.084 152.469C159.084 154.848 161.052 156.297 164.033 156.297C167.943 156.297 170.896 153.699 170.896 150.254V148.066L164.279 148.477C160.916 148.695 159.084 150.145 159.084 152.441V152.469ZM193.321 161.574C185.72 161.574 181.372 157.965 180.77 152.578L180.743 152.332H187.442L187.497 152.578C188.016 155.066 189.903 156.543 193.348 156.543C196.657 156.543 198.653 155.203 198.653 153.07V153.043C198.653 151.293 197.641 150.309 194.634 149.625L189.821 148.559C184.27 147.328 181.481 144.621 181.481 140.328V140.301C181.481 134.996 186.102 131.414 193.102 131.414C200.321 131.414 204.532 135.379 204.778 140.383L204.805 140.684H198.462L198.434 140.465C198.134 138.141 196.274 136.445 193.102 136.445C190.095 136.445 188.208 137.84 188.208 139.973V140C188.208 141.668 189.329 142.762 192.337 143.445L197.177 144.512C203.165 145.852 205.489 148.203 205.489 152.414V152.441C205.489 157.91 200.43 161.574 193.321 161.574ZM219.957 161.574C212.355 161.574 208.008 157.965 207.406 152.578L207.379 152.332H214.078L214.133 152.578C214.652 155.066 216.539 156.543 219.984 156.543C223.293 156.543 225.289 155.203 225.289 153.07V153.043C225.289 151.293 224.277 150.309 221.27 149.625L216.457 148.559C210.906 147.328 208.117 144.621 208.117 140.328V140.301C208.117 134.996 212.738 131.414 219.738 131.414C226.957 131.414 231.168 135.379 231.414 140.383L231.441 140.684H225.098L225.07 140.465C224.77 138.141 222.91 136.445 219.738 136.445C216.73 136.445 214.844 137.84 214.844 139.973V140C214.844 141.668 215.965 142.762 218.973 143.445L223.812 144.512C229.801 145.852 232.125 148.203 232.125 152.414V152.441C232.125 157.91 227.066 161.574 219.957 161.574ZM248.015 161.574C239.32 161.574 234.07 155.805 234.07 146.59V146.562C234.07 137.43 239.402 131.414 247.687 131.414C255.972 131.414 261.112 137.238 261.112 145.988V148.176H240.823C240.933 153.262 243.722 156.27 248.152 156.27C251.542 156.27 253.757 154.465 254.413 152.523L254.468 152.332H260.839L260.757 152.633C259.855 157.09 255.589 161.574 248.015 161.574ZM247.769 136.746C244.159 136.746 241.452 139.18 240.905 143.637H254.495C254.003 139.043 251.378 136.746 247.769 136.746ZM275.088 161.574C269.018 161.574 266.147 159.113 266.147 153.152V137.266H262.045V132.016H266.147V124.66H273.065V132.016H278.452V137.266H273.065V152.578C273.065 155.422 274.323 156.324 276.811 156.324C277.467 156.324 277.987 156.242 278.452 156.215V161.328C277.659 161.438 276.455 161.574 275.088 161.574Z" fill="url(#paint0_linear_187_426)"/>
<defs>
<linearGradient id="paint0_linear_187_426" x1="-76.7034" y1="79.5821" x2="379.119" y2="291.969" gradientUnits="userSpaceOnUse">
<stop offset="0.488777" stop-color="#E2E2E2"/>
<stop offset="1" stop-color="#666666"/>
</linearGradient>
</defs>
</svg>
